HIERARCHY
ROOT Joint1
{
	OFFSET 0.000000 0.000000 0.000000
	CHANNELS 6 Xposition Yposition Zposition Xrotation Yrotation Zrotation
	JOINT Joint2
	{
		OFFSET -0.000000 0.000000 1.456275
		CHANNELS 6 Xposition Yposition Zposition Xrotation Yrotation Zrotation
		JOINT Joint3
		{
			OFFSET -0.000000 0.000002 1.471446
			CHANNELS 6 Xposition Yposition Zposition Xrotation Yrotation Zrotation
			JOINT Joint4
			{
				OFFSET 0.625745 0.000000 0.917755
				CHANNELS 6 Xposition Yposition Zposition Xrotation Yrotation Zrotation
				JOINT Joint5
				{
					OFFSET -0.629534 0.000001 0.940221
					CHANNELS 6 Xposition Yposition Zposition Xrotation Yrotation Zrotation
					JOINT Joint6
					{
						OFFSET -0.000001 0.113772 1.960660
						CHANNELS 6 Xposition Yposition Zposition Xrotation Yrotation Zrotation
						JOINT Joint7
						{
							OFFSET -0.669733 -0.113771 0.388340
							CHANNELS 6 Xposition Yposition Zposition Xrotation Yrotation Zrotation
							End Site
							{
								OFFSET 0.005509 0.005509 0.438980
							}
						}
					}
				}
			}
		}
	}
}
MOTION
Frames: 17
Frame Time: 0.041667
0.000000 0.000000 0.000000 -0.000000 1.019410 -51.845606 -0.000000 0.000000 1.456275 -0.000003 -41.005932 0.000001 -0.000000 0.000002 1.471446 -0.000002 -1.133457 54.984812 0.625745 0.000000 0.917755 0.000002 96.375260 -0.000001 -0.629534 0.000001 0.940221 -0.000002 1.709739 53.453706 -0.000001 0.113772 1.960661 -88.303868 105.488577 0.000006 -0.669733 -0.113771 0.388340 0.260225 2.869840 63.344144 
0.000000 0.000000 0.000000 -0.000000 1.019410 -50.662935 -0.000000 0.000000 1.456275 0.000001 -41.096596 0.000000 -0.000000 0.000002 1.471446 -0.000002 -1.133459 53.729772 0.625745 0.000000 0.917755 0.000015 97.256860 -0.000004 -0.629534 0.000001 0.940221 -0.000001 1.709739 52.233974 -0.000001 0.113772 1.960661 -88.303868 105.134739 0.000006 -0.669733 -0.113771 0.388341 0.250700 2.897210 64.977318 
0.000000 0.000000 0.000000 -0.000000 1.019410 -49.071982 -0.000000 0.000000 1.456275 -0.000001 -41.218566 -0.000004 -0.000001 0.000002 1.471446 0.000001 -1.133458 52.041472 0.625745 0.000000 0.917755 0.000019 98.442806 -0.000012 -0.629534 0.000001 0.940221 -0.000000 1.709737 50.593171 -0.000001 0.113772 1.960660 -88.303868 104.658743 0.000003 -0.669733 -0.113771 0.388341 0.236665 2.933579 67.174357 
0.000000 0.000000 0.000000 -0.000000 1.019410 -47.285844 -0.000000 0.000000 1.456275 -0.000001 -41.355487 0.000003 -0.000000 0.000002 1.471446 -0.000002 -1.133457 50.146040 0.625744 0.000001 0.917755 0.000009 99.774235 -0.000011 -0.629533 0.000001 0.940221 -0.000002 1.709737 48.751069 -0.000001 0.113772 1.960661 -88.303868 104.124356 0.000009 -0.669733 -0.113771 0.388340 0.219260 2.973735 69.641032 
0.000000 0.000000 0.000000 -0.000000 1.019410 -45.564742 -0.000000 0.000000 1.456275 -0.000004 -41.487436 0.000004 -0.000000 0.000002 1.471445 0.000000 -1.133455 48.319627 0.625745 0.000000 0.917755 0.000003 101.057184 -0.000003 -0.629534 0.000001 0.940221 -0.000001 1.709738 46.976033 -0.000001 0.113772 1.960661 -88.303862 103.609434 0.000010 -0.669733 -0.113771 0.388340 0.200859 3.011688 72.018000 
0.000000 0.000000 0.000000 -0.000000 1.019410 -43.908756 -0.000000 0.000000 1.456275 -0.000004 -41.614389 0.000001 -0.000000 0.000002 1.471446 -0.000003 -1.133456 46.562308 0.625745 0.000000 0.917755 0.000001 102.291597 -0.000006 -0.629533 0.000001 0.940221 -0.000000 1.709738 45.268168 -0.000001 0.113772 1.960660 -88.303862 103.113986 0.000004 -0.669733 -0.113771 0.388339 0.181687 3.047455 74.305109 
0.000000 0.000000 0.000000 -0.000000 1.019410 -42.252862 -0.000000 0.000000 1.456275 -0.000000 -41.741335 0.000000 -0.000000 0.000002 1.471445 -0.000002 -1.133453 44.805085 0.625745 0.000000 0.917755 0.000004 103.525949 -0.000010 -0.629534 0.000001 0.940221 -0.000001 1.709737 43.560382 -0.000001 0.113772 1.960660 -88.303868 102.618565 0.000000 -0.669733 -0.113771 0.388339 0.161100 3.082428 76.592191 
0.000000 0.000000 0.000000 -0.000000 1.019410 -40.531668 -0.000000 -0.000000 1.456275 0.000003 -41.873281 0.000002 -0.000001 0.000002 1.471446 -0.000000 -1.133457 42.978573 0.625745 0.000000 0.917755 0.000009 104.808980 -0.000002 -0.629533 0.000001 0.940221 -0.000001 1.709738 41.785257 -0.000001 0.113772 1.960660 -88.303862 102.103603 0.000002 -0.669733 -0.113771 0.388340 0.138236 3.117880 78.969548 
0.000000 0.000000 0.000000 -0.000000 1.019410 -38.745081 -0.000000 0.000000 1.456275 -0.000001 -42.010246 0.000004 -0.000000 0.000002 1.471446 0.000000 -1.133453 41.082666 0.625744 0.000000 0.917755 0.000008 106.140737 -0.000005 -0.629534 0.000001 0.940221 -0.000002 1.709738 39.942690 -0.000001 0.113772 1.960661 -88.303868 101.569079 0.000009 -0.669733 -0.113771 0.388340 0.112966 3.153643 81.437329 
0.000000 0.000000 0.000000 -0.000000 1.019410 -37.154573 -0.000000 -0.000000 1.456275 -0.000001 -42.132172 0.000001 -0.000000 0.000002 1.471445 -0.000000 -1.133458 39.394837 0.625744 0.000001 0.917755 0.000009 107.326348 -0.000006 -0.629534 0.000001 0.940221 -0.000001 1.709739 38.302355 -0.000001 0.113772 1.960661 -88.303868 101.093227 0.000012 -0.669733 -0.113771 0.388342 0.089189 3.184542 83.634341 
0.000000 0.000000 0.000000 -0.000000 1.019410 -35.974033 -0.000000 -0.000000 1.456275 -0.000002 -42.222682 0.000002 -0.000000 0.000002 1.471445 -0.000003 -1.133457 38.142058 0.625745 0.000000 0.917755 0.000008 108.206357 -0.000002 -0.629533 0.000001 0.940221 -0.000001 1.709737 37.084823 -0.000001 0.113772 1.960660 -88.303868 100.740024 0.000011 -0.669733 -0.113771 0.388340 0.070784 3.206876 85.265117 
0.000000 0.000000 0.000000 -0.000000 1.019410 -34.965361 -0.000000 -0.000000 1.456275 -0.000002 -42.300004 0.000000 -0.000000 0.000002 1.471446 -0.000006 -1.133454 37.071661 0.625744 0.000000 0.917755 0.000007 108.958251 -0.000000 -0.629534 0.000001 0.940221 -0.000001 1.709738 36.044544 -0.000001 0.113772 1.960660 -88.303868 100.438246 0.000011 -0.669733 -0.113771 0.388340 0.054556 3.225537 86.658510 
0.000000 0.000000 0.000000 -0.000000 1.019410 -33.777488 -0.000000 0.000000 1.456275 -0.000001 -42.391070 -0.000000 -0.000000 0.000002 1.471446 -0.000001 -1.133457 35.811112 0.625745 0.000000 0.917755 0.000008 109.843724 -0.000003 -0.629534 0.000001 0.940221 -0.000002 1.709739 34.819454 -0.000002 0.113772 1.960661 -88.303868 100.082851 0.000013 -0.669733 -0.113771 0.388341 0.034872 3.247001 88.299497 
0.000000 0.000000 0.000000 -0.000000 1.019410 -32.176908 -0.000000 0.000000 1.456275 -0.000001 -42.513775 -0.000003 -0.000000 0.000002 1.471446 -0.000001 -1.133458 34.112588 0.625745 0.000000 0.917755 0.000007 111.036835 -0.000003 -0.629534 0.000001 0.940221 -0.000001 1.709737 33.168713 -0.000001 0.113772 1.960661 -88.303855 99.603979 0.000014 -0.669733 -0.113771 0.388341 0.007391 3.275015 90.510675 
0.000000 0.000000 0.000000 -0.000000 1.019410 -30.400400 -0.000000 -0.000000 1.456275 0.000001 -42.649965 -0.000001 -0.000000 0.000002 1.471446 0.000000 -1.133456 32.227373 0.625745 0.000000 0.917755 0.000004 112.361106 -0.000003 -0.629534 0.000001 0.940221 -0.000001 1.709737 31.336546 -0.000000 0.113772 1.960660 -88.303868 99.072468 0.000013 -0.669733 -0.113771 0.388340 -0.024356 3.304842 92.964981 
0.000000 0.000000 0.000000 -0.000000 1.019410 -28.713104 -0.000000 0.000000 1.456275 -0.000001 -42.779319 -0.000000 -0.000000 0.000002 1.471446 -0.000003 -1.133454 30.436832 0.625745 0.000000 0.917755 0.000008 113.618865 -0.000003 -0.629533 0.000001 0.940221 -0.000000 1.709737 29.596388 -0.000000 0.113772 1.960660 -88.303868 98.567655 0.000020 -0.669733 -0.113771 0.388340 -0.055668 3.331890 95.296111 
0.000000 0.000000 0.000000 -0.000000 1.019410 -27.023307 -0.000000 0.000000 1.456275 -0.000001 -42.908860 0.000001 -0.000000 0.000002 1.471446 -0.000001 -1.133456 28.643635 0.625745 0.000000 0.917755 0.000005 114.878482 -0.000004 -0.629534 0.000001 0.940221 -0.000001 1.709738 27.853640 -0.000000 0.113772 1.960660 -88.303855 98.062091 0.000008 -0.669733 -0.113771 0.388341 -0.088104 3.357682 97.630792 
